<!-- <svg width="231" height="36" viewBox="0 0 231 36" fill="none" xmlns="http://www.w3.org/2000/svg">
<path d="M185.448 7.82853V10.625H184.14V3.09883H187.019C187.86 3.09883 188.527 3.31766 189.02 3.75531C189.516 4.19295 189.764 4.77189 189.764 5.49211C189.764 6.22957 189.521 6.80333 189.035 7.21341C188.553 7.62349 187.876 7.82853 187.004 7.82853H185.448ZM185.448 6.77921H187.019C187.484 6.77921 187.839 6.67066 188.084 6.45356C188.329 6.23301 188.451 5.91598 188.451 5.50245C188.451 5.09582 188.327 4.77189 188.079 4.53067C187.831 4.286 187.49 4.16022 187.055 4.15332H185.448V6.77921Z" fill="#2C2E31"/>
<path d="M193.35 10.625H192.048V3.09883H193.35V10.625Z" fill="#2C2E31"/>
<path d="M197.324 9.58085H200.741V10.625H196.016V3.09883H197.324V9.58085Z" fill="#2C2E31"/>
<path d="M207.119 8.87268H204.203L203.593 10.625H202.234L205.077 3.09883H206.25L209.098 10.625H207.734L207.119 8.87268ZM204.57 7.81819H206.752L205.661 4.69608L204.57 7.81819Z" fill="#2C2E31"/>
<path d="M215.833 4.15332H213.486V10.625H212.188V4.15332H209.862V3.09883H215.833V4.15332Z" fill="#2C2E31"/>
<path d="M222.283 7.2651H219.191V9.58085H222.805V10.625H217.884V3.09883H222.768V4.15332H219.191V6.23129H222.283V7.2651Z" fill="#2C2E31"/>
<path d="M228.862 8.6866C228.862 8.35578 228.745 8.10077 228.51 7.92157C228.279 7.74238 227.861 7.56146 227.254 7.37882C226.648 7.19618 226.165 6.99287 225.807 6.76887C225.121 6.33812 224.778 5.77641 224.778 5.08376C224.778 4.47725 225.025 3.97758 225.517 3.58473C226.014 3.19188 226.656 2.99545 227.445 2.99545C227.969 2.99545 228.436 3.09194 228.846 3.28492C229.256 3.4779 229.579 3.75358 229.813 4.11197C230.047 4.46691 230.164 4.86149 230.164 5.29569H228.862C228.862 4.90284 228.738 4.59614 228.49 4.37559C228.245 4.1516 227.893 4.0396 227.435 4.0396C227.008 4.0396 226.675 4.13092 226.437 4.31357C226.203 4.49621 226.086 4.75121 226.086 5.07859C226.086 5.35427 226.213 5.58516 226.468 5.77124C226.723 5.95388 227.144 6.13308 227.73 6.30883C228.316 6.48113 228.786 6.67927 229.141 6.90327C229.496 7.12381 229.756 7.37882 229.921 7.66829C230.087 7.95431 230.17 8.2903 230.17 8.67626C230.17 9.30344 229.928 9.80311 229.446 10.1753C228.967 10.544 228.316 10.7284 227.492 10.7284C226.947 10.7284 226.446 10.6284 225.988 10.4286C225.533 10.2253 225.178 9.94613 224.923 9.59118C224.671 9.23624 224.546 8.82272 224.546 8.35061H225.853C225.853 8.77792 225.995 9.10874 226.277 9.34307C226.56 9.5774 226.965 9.69456 227.492 9.69456C227.947 9.69456 228.288 9.60324 228.515 9.4206C228.746 9.23452 228.862 8.98985 228.862 8.6866Z" fill="#2C2E31"/>
<path d="M188.477 19.4357H185.448V22.625H184.14V15.0988H188.921V16.1533H185.448V18.3915H188.477V19.4357Z" fill="#2C2E31"/>
<path d="M192.399 22.625H191.097V15.0988H192.399V22.625Z" fill="#2C2E31"/>
<path d="M200.348 16.1533H198.001V22.625H196.704V16.1533H194.378V15.0988H200.348V16.1533Z" fill="#2C2E31"/>
<path d="M208.369 22.625H207.062L203.707 17.2853V22.625H202.399V15.0988H203.707L207.072 20.4592V15.0988H208.369V22.625Z" fill="#2C2E31"/>
<path d="M215.373 19.2651H212.281V21.5808H215.895V22.625H210.974V15.0988H215.858V16.1533H212.281V18.2313H215.373V19.2651Z" fill="#2C2E31"/>
<path d="M221.952 20.6866C221.952 20.3558 221.835 20.1008 221.6 19.9216C221.369 19.7424 220.951 19.5615 220.344 19.3788C219.738 19.1962 219.255 18.9929 218.897 18.7689C218.211 18.3381 217.868 17.7764 217.868 17.0838C217.868 16.4773 218.115 15.9776 218.607 15.5847C219.104 15.1919 219.746 14.9955 220.535 14.9955C221.059 14.9955 221.526 15.0919 221.936 15.2849C222.346 15.4779 222.669 15.7536 222.903 16.112C223.137 16.4669 223.254 16.8615 223.254 17.2957H221.952C221.952 16.9028 221.828 16.5961 221.58 16.3756C221.335 16.1516 220.983 16.0396 220.525 16.0396C220.098 16.0396 219.765 16.1309 219.527 16.3136C219.293 16.4962 219.176 16.7512 219.176 17.0786C219.176 17.3543 219.303 17.5852 219.558 17.7712C219.813 17.9539 220.234 18.1331 220.82 18.3088C221.406 18.4811 221.876 18.6793 222.231 18.9033C222.586 19.1238 222.846 19.3788 223.011 19.6683C223.177 19.9543 223.26 20.2903 223.26 20.6763C223.26 21.3034 223.018 21.8031 222.536 22.1753C222.057 22.544 221.406 22.7284 220.582 22.7284C220.037 22.7284 219.536 22.6284 219.078 22.4286C218.623 22.2253 218.268 21.9461 218.013 21.5912C217.761 21.2362 217.636 20.8227 217.636 20.3506H218.943C218.943 20.7779 219.085 21.1087 219.367 21.3431C219.65 21.5774 220.055 21.6946 220.582 21.6946C221.037 21.6946 221.378 21.6032 221.605 21.4206C221.836 21.2345 221.952 20.9898 221.952 20.6866Z" fill="#2C2E31"/>
<path d="M229.399 20.6866C229.399 20.3558 229.282 20.1008 229.048 19.9216C228.817 19.7424 228.398 19.5615 227.792 19.3788C227.185 19.1962 226.703 18.9929 226.344 18.7689C225.659 18.3381 225.316 17.7764 225.316 17.0838C225.316 16.4773 225.562 15.9776 226.055 15.5847C226.551 15.1919 227.194 14.9955 227.983 14.9955C228.507 14.9955 228.974 15.0919 229.384 15.2849C229.794 15.4779 230.116 15.7536 230.35 16.112C230.585 16.4669 230.702 16.8615 230.702 17.2957H229.399C229.399 16.9028 229.275 16.5961 229.027 16.3756C228.782 16.1516 228.431 16.0396 227.973 16.0396C227.545 16.0396 227.213 16.1309 226.975 16.3136C226.741 16.4962 226.624 16.7512 226.624 17.0786C226.624 17.3543 226.751 17.5852 227.006 17.7712C227.261 17.9539 227.681 18.1331 228.267 18.3088C228.853 18.4811 229.324 18.6793 229.678 18.9033C230.033 19.1238 230.294 19.3788 230.459 19.6683C230.624 19.9543 230.707 20.2903 230.707 20.6763C230.707 21.3034 230.466 21.8031 229.983 22.1753C229.504 22.544 228.853 22.7284 228.03 22.7284C227.485 22.7284 226.984 22.6284 226.525 22.4286C226.07 22.2253 225.716 21.9461 225.46 21.5912C225.209 21.2362 225.083 20.8227 225.083 20.3506H226.391C226.391 20.7779 226.532 21.1087 226.815 21.3431C227.097 21.5774 227.502 21.6946 228.03 21.6946C228.484 21.6946 228.826 21.6032 229.053 21.4206C229.284 21.2345 229.399 20.9898 229.399 20.6866Z" fill="#2C2E31"/>
<path d="M183.82 32.5936C183.82 32.2455 183.914 31.9267 184.104 31.6373C184.293 31.3444 184.667 30.998 185.226 30.5983C184.933 30.2296 184.728 29.916 184.61 29.6575C184.497 29.3991 184.44 29.1492 184.44 28.908C184.44 28.3187 184.619 27.8535 184.977 27.5124C185.336 27.1678 185.818 26.9955 186.425 26.9955C186.973 26.9955 187.421 27.1574 187.769 27.4813C188.12 27.8018 188.296 28.1998 188.296 28.6754C188.296 28.989 188.217 29.2785 188.058 29.5438C187.9 29.8057 187.639 30.0676 187.278 30.3295L186.766 30.7017L188.218 32.4178C188.429 32.0043 188.534 31.5442 188.534 31.0377H189.624C189.624 31.9646 189.407 32.7245 188.973 33.3172L190.079 34.625H188.622L188.198 34.1236C187.66 34.5268 187.019 34.7284 186.275 34.7284C185.53 34.7284 184.934 34.532 184.486 34.1391C184.042 33.7428 183.82 33.2276 183.82 32.5936ZM186.311 33.7256C186.735 33.7256 187.131 33.5843 187.5 33.3017L185.856 31.3633L185.696 31.477C185.282 31.7906 185.076 32.149 185.076 32.5522C185.076 32.9003 185.188 33.1828 185.412 33.3999C185.636 33.617 185.935 33.7256 186.311 33.7256ZM185.618 28.877C185.618 29.1665 185.796 29.53 186.151 29.9677L186.725 29.5748L186.885 29.4456C187.098 29.2561 187.205 29.0131 187.205 28.7168C187.205 28.5203 187.131 28.3532 186.983 28.2154C186.835 28.0741 186.647 28.0034 186.42 28.0034C186.175 28.0034 185.98 28.0861 185.835 28.2515C185.691 28.4169 185.618 28.6254 185.618 28.877Z" fill="#2C2E31"/>
<path d="M196.973 31.8285V34.625H195.665V27.0988H198.544C199.385 27.0988 200.052 27.3177 200.545 27.7553C201.041 28.193 201.289 28.7719 201.289 29.4921C201.289 30.2296 201.046 30.8033 200.56 31.2134C200.078 31.6235 199.4 31.8285 198.529 31.8285H196.973ZM196.973 30.7792H198.544C199.009 30.7792 199.364 30.6707 199.609 30.4536C199.854 30.233 199.976 29.916 199.976 29.5025C199.976 29.0958 199.852 28.7719 199.604 28.5307C199.356 28.286 199.015 28.1602 198.58 28.1533H196.973V30.7792Z" fill="#2C2E31"/>
<path d="M206.788 32.8727H203.872L203.262 34.625H201.903L204.746 27.0988H205.919L208.768 34.625H207.403L206.788 32.8727ZM204.239 31.8182H206.421L205.33 28.6961L204.239 31.8182Z" fill="#2C2E31"/>
<path d="M210.684 34.625V27.0988H212.907C213.572 27.0988 214.161 27.247 214.675 27.5434C215.192 27.8397 215.591 28.2602 215.874 28.8046C216.157 29.3491 216.298 29.9728 216.298 30.6758V31.0532C216.298 31.7665 216.155 32.3937 215.869 32.9347C215.586 33.4757 215.181 33.8927 214.654 34.1856C214.13 34.4785 213.529 34.625 212.85 34.625H210.684ZM211.992 28.1533V33.5808H212.845C213.531 33.5808 214.056 33.3672 214.421 32.9399C214.79 32.5091 214.978 31.8923 214.985 31.0894V30.6707C214.985 29.8539 214.807 29.2302 214.452 28.7995C214.098 28.3687 213.582 28.1533 212.907 28.1533H211.992Z" fill="#2C2E31"/>
<path d="M223.058 31.2651H219.967V33.5808H223.58V34.625H218.659V27.0988H223.544V28.1533H219.967V30.2313H223.058V31.2651Z" fill="#2C2E31"/>
<path d="M227.011 33.5808H230.428V34.625H225.703V27.0988H227.011V33.5808Z" fill="#2C2E31"/>
<path d="M24.1455 23.5978C23.9709 27.5506 22.8596 30.543 20.8118 32.575C18.764 34.607 15.8747 35.6229 12.1442 35.6229C8.22312 35.6229 5.21485 34.3371 3.11939 31.7654C1.0398 29.1778 0 25.4948 0 20.7165V14.8826C0 10.1202 1.07948 6.45309 3.23845 3.88138C5.39741 1.29379 8.39774 0 12.2394 0C16.0176 0 18.883 1.05567 20.8356 3.16701C22.8041 5.27835 23.9232 8.31043 24.1931 12.2632H17.1685C17.105 9.81853 16.724 8.13581 16.0256 7.21507C15.3429 6.27846 14.0809 5.81016 12.2394 5.81016C10.3662 5.81016 9.04067 6.46896 8.26281 7.78656C7.48494 9.08829 7.0722 11.2393 7.02458 14.2396V20.788C7.02458 24.2328 7.40557 26.5981 8.16756 27.884C8.94542 29.1698 10.271 29.8128 12.1442 29.8128C13.9857 29.8128 15.2556 29.3683 15.9541 28.4793C16.6526 27.5744 17.0495 25.9473 17.1447 23.5978H24.1455ZM45.0049 28.0507H35.4563L33.5989 35.1467H26.1933L37.0279 0.476242H43.4333L54.3393 35.1467H46.8623L45.0049 28.0507ZM36.9802 22.2167H43.4571L40.2187 9.85822L36.9802 22.2167ZM66.7454 0.476242L73.2937 25.5504L79.8182 0.476242H88.9621V35.1467H81.9375V25.7647L82.5804 11.3108L75.6511 35.1467H70.8887L63.9594 11.3108L64.6023 25.7647V35.1467H57.6015V0.476242H66.7454ZM101.606 22.9549V35.1467H94.6056V0.476242H106.416C109.845 0.476242 112.576 1.53985 114.608 3.66707C116.656 5.79428 117.68 8.55649 117.68 11.9537C117.68 15.3509 116.671 18.0337 114.655 20.0022C112.639 21.9707 109.845 22.9549 106.274 22.9549H101.606ZM101.606 17.1209H106.416C107.75 17.1209 108.782 16.6844 109.512 15.8112C110.242 14.9381 110.607 13.6682 110.607 12.0013C110.607 10.271 110.234 8.8978 109.488 7.88181C108.742 6.84995 107.742 6.32609 106.488 6.31021H101.606V17.1209ZM144.921 0.476242V24.4789C144.889 28.0824 143.897 30.8446 141.944 32.7655C139.991 34.6704 137.19 35.6229 133.538 35.6229C129.824 35.6229 126.982 34.6546 125.014 32.7179C123.061 30.7811 122.085 27.9792 122.085 24.3122V0.476242H129.133V24.336C129.133 26.3045 129.451 27.7094 130.086 28.5507C130.721 29.3921 131.872 29.8128 133.538 29.8128C135.205 29.8128 136.348 29.4 136.967 28.5745C137.586 27.7332 137.904 26.36 137.92 24.455V0.476242H144.921ZM164.875 26.0505C164.875 24.6376 164.51 23.574 163.78 22.8596C163.065 22.1294 161.756 21.3753 159.851 20.5975C156.374 19.2799 153.874 17.74 152.35 15.9779C150.826 14.2 150.064 12.1045 150.064 9.69153C150.064 6.77058 151.096 4.42905 153.16 2.66696C155.239 0.888986 157.874 0 161.065 0C163.192 0 165.089 0.45243 166.756 1.35729C168.423 2.24628 169.701 3.50832 170.59 5.14342C171.495 6.77852 171.947 8.63586 171.947 10.7155H164.97C164.97 9.09623 164.621 7.86594 163.923 7.02458C163.24 6.16734 162.248 5.73872 160.946 5.73872C159.724 5.73872 158.771 6.10384 158.089 6.83408C157.406 7.54844 157.065 8.5168 157.065 9.73916C157.065 10.6916 157.446 11.5568 158.208 12.3347C158.97 13.0967 160.319 13.8904 162.256 14.7159C165.637 15.9382 168.09 17.4384 169.614 19.2164C171.154 20.9944 171.924 23.2565 171.924 26.0028C171.924 29.019 170.963 31.3764 169.042 33.075C167.121 34.7736 164.51 35.6229 161.208 35.6229C158.97 35.6229 156.93 35.1626 155.088 34.2418C153.247 33.3211 151.802 32.0035 150.755 30.289C149.723 28.5745 149.207 26.5505 149.207 24.2169H156.231C156.231 26.2171 156.62 27.6697 157.398 28.5745C158.176 29.4794 159.446 29.9318 161.208 29.9318C163.653 29.9318 164.875 28.638 164.875 26.0505Z" fill="#2C2E31"/>
</svg>
 -->

 <svg width="862" height="102" viewBox="0 0 862 102" fill="none" xmlns="http://www.w3.org/2000/svg">
<path d="M393.329 29.688V35.6435H389.846V18.7405H396.44C397.709 18.7405 398.824 18.9727 399.784 19.437C400.751 19.9014 401.494 20.5631 402.013 21.4222C402.531 22.2736 402.79 23.2449 402.79 24.3361C402.79 25.9924 402.222 27.3004 401.084 28.2601C399.954 29.212 398.387 29.688 396.382 29.688H393.329ZM393.329 26.867H396.44C397.361 26.867 398.062 26.6503 398.541 26.2168C399.029 25.7834 399.273 25.1643 399.273 24.3594C399.273 23.5312 399.029 22.8618 398.541 22.351C398.054 21.8402 397.38 21.577 396.521 21.5615H393.329V26.867Z" fill="#6B8AA6"/>
<path d="M411.75 35.6435H408.267V18.7405H411.75V35.6435Z" fill="#6B8AA6"/>
<path d="M421.325 32.8457H428.72V35.6435H417.842V18.7405H421.325V32.8457Z" fill="#6B8AA6"/>
<path d="M443.356 32.1608H437.25L436.089 35.6435H432.386L438.678 18.7405H441.905L448.232 35.6435H444.529L443.356 32.1608ZM438.19 29.3397H442.416L440.291 23.0127L438.19 29.3397Z" fill="#6B8AA6"/>
<path d="M463.995 21.5615H458.817V35.6435H455.334V21.5615H450.226V18.7405H463.995V21.5615Z" fill="#6B8AA6"/>
<path d="M479.014 28.3181H472.327V32.8457H480.175V35.6435H468.845V18.7405H480.152V21.5615H472.327V25.5899H479.014V28.3181Z" fill="#6B8AA6"/>
<path d="M493.837 31.2088C493.837 30.551 493.604 30.0479 493.14 29.6996C492.676 29.3436 491.84 28.9721 490.632 28.5851C489.425 28.1904 488.469 27.8034 487.765 27.4242C485.846 26.3871 484.886 24.9901 484.886 23.2333C484.886 22.32 485.141 21.5074 485.652 20.7953C486.171 20.0755 486.91 19.5144 487.869 19.112C488.837 18.7095 489.92 18.5083 491.12 18.5083C492.327 18.5083 493.403 18.7289 494.347 19.17C495.292 19.6034 496.023 20.2187 496.542 21.0159C497.068 21.8131 497.331 22.7186 497.331 23.7325H493.848C493.848 22.9585 493.604 22.3587 493.117 21.933C492.629 21.4996 491.944 21.2829 491.062 21.2829C490.211 21.2829 489.549 21.4648 489.077 21.8285C488.605 22.1846 488.369 22.6567 488.369 23.2449C488.369 23.7944 488.643 24.2549 489.193 24.6264C489.75 24.9979 490.567 25.3461 491.642 25.6712C493.624 26.2671 495.067 27.0063 495.973 27.8886C496.878 28.7709 497.331 29.8699 497.331 31.1856C497.331 32.6484 496.778 33.7977 495.671 34.6335C494.564 35.4617 493.074 35.8757 491.201 35.8757C489.901 35.8757 488.717 35.6397 487.649 35.1676C486.581 34.6877 485.764 34.0337 485.199 33.2056C484.642 32.3775 484.363 31.4178 484.363 30.3265H487.858C487.858 32.1917 488.972 33.1243 491.201 33.1243C492.029 33.1243 492.676 32.9579 493.14 32.6251C493.604 32.2846 493.837 31.8125 493.837 31.2088Z" fill="#6B8AA6"/>
<path d="M400.016 54.7761H393.329V61.6836H389.846V44.7806H400.852V47.6016H393.329V51.9667H400.016V54.7761Z" fill="#6B8AA6"/>
<path d="M409.428 61.6836H405.945V44.7806H409.428V61.6836Z" fill="#6B8AA6"/>
<path d="M427.896 47.6016H422.718V61.6836H419.235V47.6016H414.127V44.7806H427.896V47.6016Z" fill="#6B8AA6"/>
<path d="M446.491 61.6836H443.008L436.228 50.562V61.6836H432.745V44.7806H436.228L443.02 55.9254V44.7806H446.491V61.6836Z" fill="#6B8AA6"/>
<path d="M462.555 54.3582H455.868V58.8858H463.716V61.6836H452.386V44.7806H463.693V47.6016H455.868V51.63H462.555V54.3582Z" fill="#6B8AA6"/>
<path d="M477.377 57.2489C477.377 56.591 477.145 56.088 476.681 55.7397C476.217 55.3837 475.381 55.0122 474.173 54.6252C472.966 54.2305 472.01 53.8435 471.306 53.4643C469.386 52.4272 468.427 51.0302 468.427 49.2734C468.427 48.3601 468.682 47.5474 469.193 46.8354C469.711 46.1156 470.451 45.5545 471.41 45.1521C472.378 44.7496 473.461 44.5484 474.661 44.5484C475.868 44.5484 476.944 44.769 477.888 45.2101C478.832 45.6435 479.564 46.2588 480.082 47.056C480.609 47.8532 480.872 48.7587 480.872 49.7725H477.389C477.389 48.9986 477.145 48.3988 476.658 47.9731C476.17 47.5397 475.485 47.323 474.603 47.323C473.751 47.323 473.09 47.5049 472.618 47.8686C472.146 48.2246 471.909 48.6968 471.909 49.285C471.909 49.8345 472.184 50.295 472.734 50.6665C473.291 51.038 474.108 51.3862 475.183 51.7113C477.165 52.3072 478.608 53.0464 479.514 53.9287C480.419 54.811 480.872 55.91 480.872 57.2257C480.872 58.6884 480.318 59.8378 479.212 60.6736C478.105 61.5018 476.615 61.9158 474.742 61.9158C473.442 61.9158 472.258 61.6798 471.19 61.2077C470.122 60.7278 469.305 60.0738 468.74 59.2457C468.183 58.4176 467.904 57.4579 467.904 56.3666H471.399C471.399 58.2318 472.513 59.1644 474.742 59.1644C475.57 59.1644 476.217 58.998 476.681 58.6652C477.145 58.3247 477.377 57.8526 477.377 57.2489Z" fill="#6B8AA6"/>
<path d="M494.858 57.2489C494.858 56.591 494.626 56.088 494.162 55.7397C493.697 55.3837 492.861 55.0122 491.654 54.6252C490.447 54.2305 489.491 53.8435 488.787 53.4643C486.867 52.4272 485.907 51.0302 485.907 49.2734C485.907 48.3601 486.163 47.5474 486.674 46.8354C487.192 46.1156 487.931 45.5545 488.891 45.1521C489.858 44.7496 490.942 44.5484 492.142 44.5484C493.349 44.5484 494.425 44.769 495.369 45.2101C496.313 45.6435 497.045 46.2588 497.563 47.056C498.089 47.8532 498.353 48.7587 498.353 49.7725H494.87C494.87 48.9986 494.626 48.3988 494.138 47.9731C493.651 47.5397 492.966 47.323 492.084 47.323C491.232 47.323 490.571 47.5049 490.098 47.8686C489.626 48.2246 489.39 48.6968 489.39 49.285C489.39 49.8345 489.665 50.295 490.214 50.6665C490.772 51.038 491.588 51.3862 492.664 51.7113C494.645 52.3072 496.089 53.0464 496.994 53.9287C497.9 54.811 498.353 55.91 498.353 57.2257C498.353 58.6884 497.799 59.8378 496.692 60.6736C495.586 61.5018 494.096 61.9158 492.223 61.9158C490.923 61.9158 489.739 61.6798 488.67 61.2077C487.602 60.7278 486.786 60.0738 486.221 59.2457C485.664 58.4176 485.385 57.4579 485.385 56.3666H488.879C488.879 58.2318 489.994 59.1644 492.223 59.1644C493.051 59.1644 493.697 58.998 494.162 58.6652C494.626 58.3247 494.858 57.8526 494.858 57.2489Z" fill="#6B8AA6"/>
<path d="M389.161 83.1729C389.161 82.3912 389.378 81.6676 389.811 81.002C390.252 80.3364 391.057 79.5972 392.226 78.7846C391.723 78.1113 391.328 77.4805 391.042 76.8923C390.755 76.2964 390.612 75.6772 390.612 75.0348C390.612 73.7191 391.026 72.6511 391.854 71.8307C392.69 71.0025 393.813 70.5885 395.221 70.5885C396.483 70.5885 397.516 70.9638 398.321 71.7146C399.133 72.4653 399.54 73.4018 399.54 74.524C399.54 75.8707 398.859 77.0587 397.497 78.088L396.196 79.0284L399.11 82.4183C399.567 81.5205 399.795 80.5299 399.795 79.4463H402.651C402.651 81.6443 402.144 83.4244 401.13 84.7866L403.661 87.7237H399.853L398.983 86.7253C397.736 87.5457 396.305 87.9559 394.687 87.9559C393.015 87.9559 391.676 87.5186 390.67 86.6441C389.664 85.7618 389.161 84.6047 389.161 83.1729ZM394.85 85.2626C395.655 85.2626 396.417 85.0381 397.137 84.5892L393.805 80.735L393.561 80.9091C392.872 81.4973 392.528 82.19 392.528 82.9871C392.528 83.6605 392.741 84.21 393.166 84.6357C393.6 85.0536 394.161 85.2626 394.85 85.2626ZM393.619 74.9884C393.619 75.5688 393.96 76.3002 394.641 77.1825L395.535 76.5905C395.991 76.2964 396.305 76.01 396.475 75.7314C396.653 75.4527 396.742 75.12 396.742 74.733C396.742 74.346 396.599 74.0093 396.312 73.723C396.026 73.4366 395.658 73.2934 395.21 73.2934C394.73 73.2934 394.343 73.4482 394.049 73.7578C393.762 74.0674 393.619 74.4776 393.619 74.9884Z" fill="#6B8AA6"/>
<path d="M420.559 81.7682V87.7237H417.076V70.8207H423.67C424.939 70.8207 426.054 71.0528 427.013 71.5172C427.981 71.9816 428.724 72.6433 429.242 73.5024C429.761 74.3537 430.02 75.325 430.02 76.4163C430.02 78.0726 429.451 79.3805 428.314 80.3402C427.184 81.2922 425.616 81.7682 423.612 81.7682H420.559ZM420.559 78.9471H423.67C424.591 78.9471 425.291 78.7304 425.771 78.297C426.259 77.8636 426.502 77.2444 426.502 76.4395C426.502 75.6114 426.259 74.9419 425.771 74.4311C425.284 73.9203 424.61 73.6572 423.751 73.6417H420.559V78.9471Z" fill="#6B8AA6"/>
<path d="M442.753 84.2409H436.646L435.485 87.7237H431.782L438.074 70.8207H441.301L447.629 87.7237H443.925L442.753 84.2409ZM437.587 81.4199H441.812L439.688 75.0929L437.587 81.4199Z" fill="#6B8AA6"/>
<path d="M452.06 87.7237V70.8207H457.261C458.747 70.8207 460.075 71.1573 461.243 71.8307C462.42 72.4963 463.337 73.4482 463.995 74.6865C464.653 75.9171 464.982 77.318 464.982 78.8891V79.6669C464.982 81.238 464.657 82.635 464.006 83.8578C463.364 85.0807 462.455 86.0288 461.278 86.7021C460.102 87.3754 458.774 87.716 457.296 87.7237H452.06ZM455.543 73.6417V84.9259H457.227C458.589 84.9259 459.63 84.4809 460.349 83.5908C461.069 82.7008 461.437 81.4276 461.452 79.7714V78.8775C461.452 77.1593 461.096 75.8591 460.384 74.9768C459.672 74.0867 458.631 73.6417 457.261 73.6417H455.543Z" fill="#6B8AA6"/>
<path d="M480.547 80.3983H473.86V84.9259H481.708V87.7237H470.377V70.8207H481.684V73.6417H473.86V77.6701H480.547V80.3983Z" fill="#6B8AA6"/>
<path d="M490.087 84.9259H497.482V87.7237H486.604V70.8207H490.087V84.9259Z" fill="#6B8AA6"/>
<path d="M51.6682 63.4962C51.2945 71.9547 48.9166 78.358 44.5345 82.7062C40.1524 87.0543 33.9699 89.2284 25.987 89.2284C17.5964 89.2284 11.1591 86.4768 6.67508 80.9737C2.22503 75.4366 0 67.5556 0 57.3307V44.8468C0 34.6558 2.30995 26.8088 6.92986 21.3056C11.5498 15.7685 17.9701 13 26.1908 13C34.2756 13 40.4072 15.259 44.5855 19.777C48.7977 24.295 51.1926 30.7832 51.7701 39.2417H36.7384C36.6025 34.0104 35.7873 30.4096 34.2926 28.4393C32.8319 26.4351 30.1313 25.433 26.1908 25.433C22.1823 25.433 19.3458 26.8427 17.6813 29.6622C16.0168 32.4478 15.1336 37.0507 15.0317 43.471V57.4836C15.0317 64.855 15.8469 69.9165 17.4775 72.6681C19.142 75.4197 21.9785 76.7954 25.987 76.7954C29.9275 76.7954 32.6451 75.8443 34.1397 73.942C35.6344 72.0057 36.4837 68.5238 36.6875 63.4962H51.6682Z" fill="#264F8D"/>
<path d="M96.3046 73.0248H75.8717L71.8973 88.2093H56.0503L79.2347 14.0191H92.9416L116.279 88.2093H100.279L96.3046 73.0248ZM79.1328 60.5408H92.9926L86.0627 34.0953L79.1328 60.5408Z" fill="#264F8D"/>
<path d="M142.826 14.0191L156.839 67.6745L170.801 14.0191H190.367V88.2093H175.336V68.1331L176.711 37.2035L161.883 88.2093H151.693L136.865 37.2035L138.24 68.1331V88.2093H123.26V14.0191H142.826Z" fill="#264F8D"/>
<path d="M217.424 62.1204V88.2093H202.443V14.0191H227.717C235.055 14.0191 240.897 16.2951 245.246 20.847C249.628 25.399 251.819 31.3098 251.819 38.5793C251.819 45.8489 249.662 51.5898 245.347 55.802C241.033 60.0143 235.055 62.1204 227.411 62.1204H217.424ZM217.424 49.6365H227.717C230.571 49.6365 232.779 48.7023 234.341 46.834C235.904 44.9657 236.685 42.2481 236.685 38.6812C236.685 34.9785 235.887 32.0401 234.29 29.866C232.694 27.658 230.554 26.537 227.87 26.503H217.424V49.6365Z" fill="#264F8D"/>
<path d="M310.111 14.0191V65.3816C310.043 73.0927 307.92 79.0035 303.742 83.1138C299.563 87.1902 293.568 89.2284 285.755 89.2284C277.806 89.2284 271.725 87.1562 267.513 83.0119C263.335 78.8676 261.245 72.8719 261.245 65.0249V14.0191H276.328V65.0758C276.328 69.2881 277.007 72.2944 278.366 74.0948C279.725 75.8952 282.188 76.7954 285.755 76.7954C289.321 76.7954 291.767 75.9122 293.092 74.1458C294.417 72.3454 295.096 69.407 295.13 65.3306V14.0191H310.111Z" fill="#264F8D"/>
<path d="M352.811 68.7446C352.811 65.7213 352.03 63.4453 350.467 61.9166C348.939 60.354 346.136 58.7404 342.06 57.0759C334.62 54.2564 329.27 50.9613 326.009 47.1907C322.748 43.3861 321.117 38.902 321.117 33.7386C321.117 27.4882 323.325 22.4776 327.741 18.7069C332.191 14.9023 337.83 13 344.658 13C349.21 13 353.27 13.9681 356.837 15.9044C360.403 17.8067 363.138 20.5073 365.04 24.0062C366.977 27.5051 367.945 31.4796 367.945 35.9297H353.015C353.015 32.4647 352.268 29.8321 350.773 28.0317C349.312 26.1973 347.189 25.2801 344.404 25.2801C341.788 25.2801 339.75 26.0614 338.289 27.624C336.828 29.1527 336.098 31.2248 336.098 33.8405C336.098 35.8787 336.913 37.7301 338.544 39.3946C340.174 41.0251 343.062 42.7236 347.206 44.4901C354.442 47.1058 359.69 50.3159 362.951 54.1205C366.246 57.9252 367.894 62.7659 367.894 68.6427C367.894 75.0969 365.839 80.1415 361.728 83.7762C357.618 87.411 352.03 89.2284 344.964 89.2284C340.174 89.2284 335.809 88.2433 331.869 86.273C327.928 84.3028 324.837 81.4833 322.595 77.8145C320.387 74.1458 319.283 69.8146 319.283 64.821H334.315C334.315 69.1013 335.147 72.2095 336.811 74.1458C338.476 76.0821 341.193 77.0502 344.964 77.0502C350.195 77.0502 352.811 74.2817 352.811 68.7446Z" fill="#264F8D"/>
<path d="M610.061 51.2617C610.061 52.6549 609.82 53.8789 609.338 54.9336C608.856 55.9818 608.166 56.7891 607.268 57.3555C606.376 57.9154 605.347 58.1953 604.182 58.1953C603.029 58.1953 602.001 57.9154 601.096 57.3555C600.197 56.7891 599.501 55.985 599.006 54.9434C598.518 53.9017 598.27 52.7005 598.264 51.3398V50.5391C598.264 49.1523 598.508 47.9284 598.996 46.8672C599.491 45.806 600.184 44.9954 601.076 44.4355C601.975 43.8691 603.003 43.5859 604.162 43.5859C605.321 43.5859 606.346 43.8659 607.238 44.4258C608.137 44.9792 608.83 45.7799 609.318 46.8281C609.807 47.8698 610.054 49.084 610.061 50.4707V51.2617ZM607.59 50.5195C607.59 48.944 607.29 47.7363 606.691 46.8965C606.099 46.0566 605.256 45.6367 604.162 45.6367C603.094 45.6367 602.258 46.0566 601.652 46.8965C601.053 47.7298 600.747 48.9115 600.734 50.4414V51.2617C600.734 52.8242 601.037 54.0319 601.643 54.8848C602.255 55.7376 603.101 56.1641 604.182 56.1641C605.275 56.1641 606.115 55.7474 606.701 54.9141C607.294 54.0807 607.59 52.8633 607.59 51.2617V50.5195ZM618.992 52.7168V58H616.521V43.7812H621.961C623.549 43.7812 624.809 44.1947 625.74 45.0215C626.678 45.8483 627.146 46.9421 627.146 48.3027C627.146 49.696 626.688 50.7799 625.77 51.5547C624.858 52.3294 623.579 52.7168 621.932 52.7168H618.992ZM618.992 50.7344H621.961C622.84 50.7344 623.51 50.5293 623.973 50.1191C624.435 49.7025 624.666 49.1035 624.666 48.3223C624.666 47.554 624.432 46.9421 623.963 46.4863C623.494 46.0241 622.85 45.7865 622.029 45.7734H618.992V50.7344ZM644.662 51.2617C644.662 52.6549 644.421 53.8789 643.939 54.9336C643.458 55.9818 642.768 56.7891 641.869 57.3555C640.977 57.9154 639.949 58.1953 638.783 58.1953C637.631 58.1953 636.602 57.9154 635.697 57.3555C634.799 56.7891 634.102 55.985 633.607 54.9434C633.119 53.9017 632.872 52.7005 632.865 51.3398V50.5391C632.865 49.1523 633.109 47.9284 633.598 46.8672C634.092 45.806 634.786 44.9954 635.678 44.4355C636.576 43.8691 637.605 43.5859 638.764 43.5859C639.923 43.5859 640.948 43.8659 641.84 44.4258C642.738 44.9792 643.432 45.7799 643.92 46.8281C644.408 47.8698 644.656 49.084 644.662 50.4707V51.2617ZM642.191 50.5195C642.191 48.944 641.892 47.7363 641.293 46.8965C640.701 46.0566 639.857 45.6367 638.764 45.6367C637.696 45.6367 636.859 46.0566 636.254 46.8965C635.655 47.7298 635.349 48.9115 635.336 50.4414V51.2617C635.336 52.8242 635.639 54.0319 636.244 54.8848C636.856 55.7376 637.702 56.1641 638.783 56.1641C639.877 56.1641 640.717 55.7474 641.303 54.9141C641.895 54.0807 642.191 52.8633 642.191 51.2617V50.5195ZM656.348 52.5215H653.594V58H651.123V43.7812H656.123C657.764 43.7812 659.03 44.1491 659.922 44.8848C660.814 45.6204 661.26 46.6849 661.26 48.0781C661.26 49.0286 661.029 49.8262 660.566 50.4707C660.111 51.1087 659.473 51.6003 658.652 51.9453L661.846 57.873V58H659.199L656.348 52.5215ZM653.594 50.5391H656.133C656.966 50.5391 657.617 50.3307 658.086 49.9141C658.555 49.4909 658.789 48.9147 658.789 48.1855C658.789 47.4238 658.571 46.8346 658.135 46.418C657.705 46.0013 657.061 45.7865 656.201 45.7734H653.594V50.5391ZM677.389 45.7734H672.955V58H670.504V45.7734H666.109V43.7812H677.389V45.7734ZM694.338 51.2617C694.338 52.6549 694.097 53.8789 693.615 54.9336C693.133 55.9818 692.443 56.7891 691.545 57.3555C690.653 57.9154 689.624 58.1953 688.459 58.1953C687.307 58.1953 686.278 57.9154 685.373 57.3555C684.475 56.7891 683.778 55.985 683.283 54.9434C682.795 53.9017 682.548 52.7005 682.541 51.3398V50.5391C682.541 49.1523 682.785 47.9284 683.273 46.8672C683.768 45.806 684.462 44.9954 685.354 44.4355C686.252 43.8691 687.281 43.5859 688.439 43.5859C689.598 43.5859 690.624 43.8659 691.516 44.4258C692.414 44.9792 693.107 45.7799 693.596 46.8281C694.084 47.8698 694.331 49.084 694.338 50.4707V51.2617ZM691.867 50.5195C691.867 48.944 691.568 47.7363 690.969 46.8965C690.376 46.0566 689.533 45.6367 688.439 45.6367C687.372 45.6367 686.535 46.0566 685.93 46.8965C685.331 47.7298 685.025 48.9115 685.012 50.4414V51.2617C685.012 52.8242 685.314 54.0319 685.92 54.8848C686.532 55.7376 687.378 56.1641 688.459 56.1641C689.553 56.1641 690.393 55.7474 690.979 54.9141C691.571 54.0807 691.867 52.8633 691.867 51.2617V50.5195ZM720.629 53.3711C720.486 54.888 719.926 56.0729 718.949 56.9258C717.973 57.7721 716.674 58.1953 715.053 58.1953C713.92 58.1953 712.921 57.9284 712.055 57.3945C711.195 56.8542 710.531 56.0892 710.062 55.0996C709.594 54.11 709.35 52.9609 709.33 51.6523V50.3242C709.33 48.9831 709.568 47.8014 710.043 46.7793C710.518 45.7572 711.199 44.9694 712.084 44.416C712.976 43.8626 714.005 43.5859 715.17 43.5859C716.739 43.5859 718.002 44.0124 718.959 44.8652C719.916 45.7181 720.473 46.9225 720.629 48.4785H718.168C718.051 47.4564 717.751 46.7207 717.27 46.2715C716.794 45.8158 716.094 45.5879 715.17 45.5879C714.096 45.5879 713.269 45.9818 712.689 46.7695C712.117 47.5508 711.824 48.6999 711.811 50.2168V51.4766C711.811 53.013 712.084 54.1849 712.631 54.9922C713.184 55.7995 713.992 56.2031 715.053 56.2031C716.023 56.2031 716.752 55.985 717.24 55.5488C717.729 55.1126 718.038 54.3867 718.168 53.3711H720.629ZM738.193 51.2617C738.193 52.6549 737.952 53.8789 737.471 54.9336C736.989 55.9818 736.299 56.7891 735.4 57.3555C734.508 57.9154 733.48 58.1953 732.314 58.1953C731.162 58.1953 730.133 57.9154 729.229 57.3555C728.33 56.7891 727.633 55.985 727.139 54.9434C726.65 53.9017 726.403 52.7005 726.396 51.3398V50.5391C726.396 49.1523 726.641 47.9284 727.129 46.8672C727.624 45.806 728.317 44.9954 729.209 44.4355C730.107 43.8691 731.136 43.5859 732.295 43.5859C733.454 43.5859 734.479 43.8659 735.371 44.4258C736.27 44.9792 736.963 45.7799 737.451 46.8281C737.939 47.8698 738.187 49.084 738.193 50.4707V51.2617ZM735.723 50.5195C735.723 48.944 735.423 47.7363 734.824 46.8965C734.232 46.0566 733.389 45.6367 732.295 45.6367C731.227 45.6367 730.391 46.0566 729.785 46.8965C729.186 47.7298 728.88 48.9115 728.867 50.4414V51.2617C728.867 52.8242 729.17 54.0319 729.775 54.8848C730.387 55.7376 731.234 56.1641 732.314 56.1641C733.408 56.1641 734.248 55.7474 734.834 54.9141C735.426 54.0807 735.723 52.8633 735.723 51.2617V50.5195ZM747.125 56.0273H753.58V58H744.654V43.7812H747.125V56.0273ZM761.945 56.0273H768.4V58H759.475V43.7812H761.945V56.0273ZM782.605 51.6523H776.766V56.0273H783.592V58H774.295V43.7812H783.523V45.7734H776.766V49.6992H782.605V51.6523ZM800.453 53.3711C800.31 54.888 799.75 56.0729 798.773 56.9258C797.797 57.7721 796.498 58.1953 794.877 58.1953C793.744 58.1953 792.745 57.9284 791.879 57.3945C791.02 56.8542 790.355 56.0892 789.887 55.0996C789.418 54.11 789.174 52.9609 789.154 51.6523V50.3242C789.154 48.9831 789.392 47.8014 789.867 46.7793C790.342 45.7572 791.023 44.9694 791.908 44.416C792.8 43.8626 793.829 43.5859 794.994 43.5859C796.563 43.5859 797.826 44.0124 798.783 44.8652C799.74 45.7181 800.297 46.9225 800.453 48.4785H797.992C797.875 47.4564 797.576 46.7207 797.094 46.2715C796.618 45.8158 795.919 45.5879 794.994 45.5879C793.92 45.5879 793.093 45.9818 792.514 46.7695C791.941 47.5508 791.648 48.6999 791.635 50.2168V51.4766C791.635 53.013 791.908 54.1849 792.455 54.9922C793.008 55.7995 793.816 56.2031 794.877 56.2031C795.847 56.2031 796.576 55.985 797.064 55.5488C797.553 55.1126 797.862 54.3867 797.992 53.3711H800.453ZM816.65 45.7734H812.217V58H809.766V45.7734H805.371V43.7812H816.65V45.7734ZM825.133 58H822.672V43.7812H825.133V58ZM843.518 51.2617C843.518 52.6549 843.277 53.8789 842.795 54.9336C842.313 55.9818 841.623 56.7891 840.725 57.3555C839.833 57.9154 838.804 58.1953 837.639 58.1953C836.486 58.1953 835.458 57.9154 834.553 57.3555C833.654 56.7891 832.958 55.985 832.463 54.9434C831.975 53.9017 831.727 52.7005 831.721 51.3398V50.5391C831.721 49.1523 831.965 47.9284 832.453 46.8672C832.948 45.806 833.641 44.9954 834.533 44.4355C835.432 43.8691 836.46 43.5859 837.619 43.5859C838.778 43.5859 839.803 43.8659 840.695 44.4258C841.594 44.9792 842.287 45.7799 842.775 46.8281C843.264 47.8698 843.511 49.084 843.518 50.4707V51.2617ZM841.047 50.5195C841.047 48.944 840.747 47.7363 840.148 46.8965C839.556 46.0566 838.713 45.6367 837.619 45.6367C836.551 45.6367 835.715 46.0566 835.109 46.8965C834.51 47.7298 834.204 48.9115 834.191 50.4414V51.2617C834.191 52.8242 834.494 54.0319 835.1 54.8848C835.712 55.7376 836.558 56.1641 837.639 56.1641C838.732 56.1641 839.572 55.7474 840.158 54.9141C840.751 54.0807 841.047 52.8633 841.047 51.2617V50.5195ZM861.258 58H858.787L852.449 47.9121V58H849.979V43.7812H852.449L858.807 53.9082V43.7812H861.258V58Z" fill="#6B8AA6"/>
<path d="M551.74 101C550.4 96.8621 551.182 32.6092 551.74 1" stroke="#9CB1C3" stroke-width="4"/>
</svg>

