<svg width="499" height="129" viewBox="0 0 499 129" fill="none" xmlns="http://www.w3.org/2000/svg">
<path d="M393.329 16.688V22.6435H389.846V5.74049H396.44C397.709 5.74049 398.824 5.97267 399.784 6.43704C400.751 6.90141 401.494 7.56314 402.013 8.42222C402.531 9.27357 402.79 10.2449 402.79 11.3361C402.79 12.9924 402.222 14.3004 401.084 15.2601C399.954 16.212 398.387 16.688 396.382 16.688H393.329ZM393.329 13.867H396.44C397.361 13.867 398.062 13.6503 398.541 13.2168C399.029 12.7834 399.273 12.1643 399.273 11.3594C399.273 10.5312 399.029 9.86177 398.541 9.35096C398.054 8.84015 397.38 8.57701 396.521 8.56153H393.329V13.867Z" fill="#6B8AA6"/>
<path d="M411.75 22.6435H408.267V5.74049H411.75V22.6435Z" fill="#6B8AA6"/>
<path d="M421.325 19.8457H428.72V22.6435H417.842V5.74049H421.325V19.8457Z" fill="#6B8AA6"/>
<path d="M443.356 19.1608H437.25L436.089 22.6435H432.386L438.678 5.74049H441.905L448.232 22.6435H444.529L443.356 19.1608ZM438.19 16.3397H442.416L440.291 10.0127L438.19 16.3397Z" fill="#6B8AA6"/>
<path d="M463.995 8.56153H458.817V22.6435H455.334V8.56153H450.226V5.74049H463.995V8.56153Z" fill="#6B8AA6"/>
<path d="M479.014 15.3181H472.327V19.8457H480.175V22.6435H468.845V5.74049H480.152V8.56153H472.327V12.5899H479.014V15.3181Z" fill="#6B8AA6"/>
<path d="M493.837 18.2088C493.837 17.551 493.604 17.0479 493.14 16.6996C492.676 16.3436 491.84 15.9721 490.632 15.5851C489.425 15.1904 488.469 14.8034 487.765 14.4242C485.846 13.3871 484.886 11.9901 484.886 10.2333C484.886 9.32 485.141 8.50736 485.652 7.79532C486.171 7.07555 486.91 6.51444 487.869 6.11198C488.837 5.70953 489.92 5.5083 491.12 5.5083C492.327 5.5083 493.403 5.72888 494.347 6.17003C495.292 6.60344 496.023 7.21873 496.542 8.0159C497.068 8.81307 497.331 9.71859 497.331 10.7325H493.848C493.848 9.95851 493.604 9.3587 493.117 8.93303C492.629 8.49962 491.944 8.28291 491.062 8.28291C490.211 8.28291 489.549 8.46479 489.077 8.82854C488.605 9.18456 488.369 9.65667 488.369 10.2449C488.369 10.7944 488.643 11.2549 489.193 11.6264C489.75 11.9979 490.567 12.3461 491.642 12.6712C493.624 13.2671 495.067 14.0063 495.973 14.8886C496.878 15.7709 497.331 16.8699 497.331 18.1856C497.331 19.6484 496.778 20.7977 495.671 21.6335C494.564 22.4617 493.074 22.8757 491.201 22.8757C489.901 22.8757 488.717 22.6397 487.649 22.1676C486.581 21.6877 485.764 21.0337 485.199 20.2056C484.642 19.3775 484.363 18.4178 484.363 17.3265H487.858C487.858 19.1917 488.972 20.1243 491.201 20.1243C492.029 20.1243 492.676 19.9579 493.14 19.6251C493.604 19.2846 493.837 18.8125 493.837 18.2088Z" fill="#6B8AA6"/>
<path d="M400.016 41.7761H393.329V48.6836H389.846V31.7806H400.852V34.6016H393.329V38.9667H400.016V41.7761Z" fill="#6B8AA6"/>
<path d="M409.428 48.6836H405.945V31.7806H409.428V48.6836Z" fill="#6B8AA6"/>
<path d="M427.896 34.6016H422.718V48.6836H419.235V34.6016H414.127V31.7806H427.896V34.6016Z" fill="#6B8AA6"/>
<path d="M446.491 48.6836H443.008L436.228 37.562V48.6836H432.745V31.7806H436.228L443.02 42.9254V31.7806H446.491V48.6836Z" fill="#6B8AA6"/>
<path d="M462.555 41.3582H455.868V45.8858H463.716V48.6836H452.386V31.7806H463.693V34.6016H455.868V38.63H462.555V41.3582Z" fill="#6B8AA6"/>
<path d="M477.377 44.2489C477.377 43.591 477.145 43.088 476.681 42.7397C476.217 42.3837 475.381 42.0122 474.173 41.6252C472.966 41.2305 472.01 40.8435 471.306 40.4643C469.386 39.4272 468.427 38.0302 468.427 36.2734C468.427 35.3601 468.682 34.5474 469.193 33.8354C469.711 33.1156 470.451 32.5545 471.41 32.1521C472.378 31.7496 473.461 31.5484 474.661 31.5484C475.868 31.5484 476.944 31.769 477.888 32.2101C478.832 32.6435 479.564 33.2588 480.082 34.056C480.609 34.8532 480.872 35.7587 480.872 36.7725H477.389C477.389 35.9986 477.145 35.3988 476.658 34.9731C476.17 34.5397 475.485 34.323 474.603 34.323C473.751 34.323 473.09 34.5049 472.618 34.8686C472.146 35.2246 471.909 35.6968 471.909 36.285C471.909 36.8345 472.184 37.295 472.734 37.6665C473.291 38.038 474.108 38.3862 475.183 38.7113C477.165 39.3072 478.608 40.0464 479.514 40.9287C480.419 41.811 480.872 42.91 480.872 44.2257C480.872 45.6884 480.318 46.8378 479.212 47.6736C478.105 48.5018 476.615 48.9158 474.742 48.9158C473.442 48.9158 472.258 48.6798 471.19 48.2077C470.122 47.7278 469.305 47.0738 468.74 46.2457C468.183 45.4176 467.904 44.4579 467.904 43.3666H471.399C471.399 45.2318 472.513 46.1644 474.742 46.1644C475.57 46.1644 476.217 45.998 476.681 45.6652C477.145 45.3247 477.377 44.8526 477.377 44.2489Z" fill="#6B8AA6"/>
<path d="M494.858 44.2489C494.858 43.591 494.626 43.088 494.162 42.7397C493.697 42.3837 492.861 42.0122 491.654 41.6252C490.447 41.2305 489.491 40.8435 488.787 40.4643C486.867 39.4272 485.907 38.0302 485.907 36.2734C485.907 35.3601 486.163 34.5474 486.674 33.8354C487.192 33.1156 487.931 32.5545 488.891 32.1521C489.858 31.7496 490.942 31.5484 492.142 31.5484C493.349 31.5484 494.425 31.769 495.369 32.2101C496.313 32.6435 497.045 33.2588 497.563 34.056C498.089 34.8532 498.353 35.7587 498.353 36.7725H494.87C494.87 35.9986 494.626 35.3988 494.138 34.9731C493.651 34.5397 492.966 34.323 492.084 34.323C491.232 34.323 490.571 34.5049 490.098 34.8686C489.626 35.2246 489.39 35.6968 489.39 36.285C489.39 36.8345 489.665 37.295 490.214 37.6665C490.772 38.038 491.588 38.3862 492.664 38.7113C494.645 39.3072 496.089 40.0464 496.994 40.9287C497.9 41.811 498.353 42.91 498.353 44.2257C498.353 45.6884 497.799 46.8378 496.692 47.6736C495.586 48.5018 494.096 48.9158 492.223 48.9158C490.923 48.9158 489.739 48.6798 488.67 48.2077C487.602 47.7278 486.786 47.0738 486.221 46.2457C485.664 45.4176 485.385 44.4579 485.385 43.3666H488.879C488.879 45.2318 489.994 46.1644 492.223 46.1644C493.051 46.1644 493.697 45.998 494.162 45.6652C494.626 45.3247 494.858 44.8526 494.858 44.2489Z" fill="#6B8AA6"/>
<path d="M389.161 70.1729C389.161 69.3912 389.378 68.6676 389.811 68.002C390.252 67.3364 391.057 66.5972 392.226 65.7846C391.723 65.1113 391.328 64.4805 391.042 63.8923C390.755 63.2964 390.612 62.6772 390.612 62.0348C390.612 60.7191 391.026 59.6511 391.854 58.8307C392.69 58.0025 393.813 57.5885 395.221 57.5885C396.483 57.5885 397.516 57.9638 398.321 58.7146C399.133 59.4653 399.54 60.4018 399.54 61.524C399.54 62.8707 398.859 64.0587 397.497 65.088L396.196 66.0284L399.11 69.4183C399.567 68.5205 399.795 67.5299 399.795 66.4463H402.651C402.651 68.6443 402.144 70.4244 401.13 71.7866L403.661 74.7237H399.853L398.983 73.7253C397.736 74.5457 396.305 74.9559 394.687 74.9559C393.015 74.9559 391.676 74.5186 390.67 73.6441C389.664 72.7618 389.161 71.6047 389.161 70.1729ZM394.85 72.2626C395.655 72.2626 396.417 72.0381 397.137 71.5892L393.805 67.735L393.561 67.9091C392.872 68.4973 392.528 69.19 392.528 69.9871C392.528 70.6605 392.741 71.21 393.166 71.6357C393.6 72.0536 394.161 72.2626 394.85 72.2626ZM393.619 61.9884C393.619 62.5688 393.96 63.3002 394.641 64.1825L395.535 63.5905C395.991 63.2964 396.305 63.01 396.475 62.7314C396.653 62.4527 396.742 62.12 396.742 61.733C396.742 61.346 396.599 61.0093 396.312 60.723C396.026 60.4366 395.658 60.2934 395.21 60.2934C394.73 60.2934 394.343 60.4482 394.049 60.7578C393.762 61.0674 393.619 61.4776 393.619 61.9884Z" fill="#6B8AA6"/>
<path d="M420.559 68.7682V74.7237H417.076V57.8207H423.67C424.939 57.8207 426.054 58.0528 427.013 58.5172C427.981 58.9816 428.724 59.6433 429.242 60.5024C429.761 61.3537 430.02 62.325 430.02 63.4163C430.02 65.0726 429.451 66.3805 428.314 67.3402C427.184 68.2922 425.616 68.7682 423.612 68.7682H420.559ZM420.559 65.9471H423.67C424.591 65.9471 425.291 65.7304 425.771 65.297C426.259 64.8636 426.502 64.2444 426.502 63.4395C426.502 62.6114 426.259 61.9419 425.771 61.4311C425.284 60.9203 424.61 60.6572 423.751 60.6417H420.559V65.9471Z" fill="#6B8AA6"/>
<path d="M442.753 71.2409H436.646L435.485 74.7237H431.782L438.074 57.8207H441.301L447.629 74.7237H443.925L442.753 71.2409ZM437.587 68.4199H441.812L439.688 62.0929L437.587 68.4199Z" fill="#6B8AA6"/>
<path d="M452.06 74.7237V57.8207H457.261C458.747 57.8207 460.075 58.1573 461.243 58.8307C462.42 59.4963 463.337 60.4482 463.995 61.6865C464.653 62.9171 464.982 64.318 464.982 65.8891V66.6669C464.982 68.238 464.657 69.635 464.006 70.8578C463.364 72.0807 462.455 73.0288 461.278 73.7021C460.102 74.3754 458.774 74.716 457.296 74.7237H452.06ZM455.543 60.6417V71.9259H457.227C458.589 71.9259 459.63 71.4809 460.349 70.5908C461.069 69.7008 461.437 68.4276 461.452 66.7714V65.8775C461.452 64.1593 461.096 62.8591 460.384 61.9768C459.672 61.0867 458.631 60.6417 457.261 60.6417H455.543Z" fill="#6B8AA6"/>
<path d="M480.547 67.3983H473.86V71.9259H481.708V74.7237H470.377V57.8207H481.684V60.6417H473.86V64.6701H480.547V67.3983Z" fill="#6B8AA6"/>
<path d="M490.087 71.9259H497.482V74.7237H486.604V57.8207H490.087V71.9259Z" fill="#6B8AA6"/>
<path d="M51.6682 50.4962C51.2945 58.9547 48.9166 65.358 44.5345 69.7062C40.1524 74.0543 33.9699 76.2284 25.987 76.2284C17.5964 76.2284 11.1591 73.4768 6.67508 67.9737C2.22503 62.4366 0 54.5556 0 44.3307V31.8468C0 21.6558 2.30995 13.8088 6.92986 8.30563C11.5498 2.76854 17.9701 0 26.1908 0C34.2756 0 40.4072 2.259 44.5855 6.77699C48.7977 11.295 51.1926 17.7832 51.7701 26.2417H36.7384C36.6025 21.0104 35.7873 17.4096 34.2926 15.4393C32.8319 13.4351 30.1313 12.433 26.1908 12.433C22.1823 12.433 19.3458 13.8427 17.6813 16.6622C16.0168 19.4478 15.1336 24.0507 15.0317 30.471V44.4836C15.0317 51.855 15.8469 56.9165 17.4775 59.6681C19.142 62.4197 21.9785 63.7954 25.987 63.7954C29.9275 63.7954 32.6451 62.8443 34.1397 60.942C35.6344 59.0057 36.4837 55.5238 36.6875 50.4962H51.6682Z" fill="#264F8D"/>
<path d="M96.3046 60.0248H75.8717L71.8973 75.2093H56.0503L79.2347 1.0191H92.9416L116.279 75.2093H100.279L96.3046 60.0248ZM79.1328 47.5408H92.9926L86.0627 21.0953L79.1328 47.5408Z" fill="#264F8D"/>
<path d="M142.826 1.0191L156.839 54.6745L170.801 1.0191H190.367V75.2093H175.336V55.1331L176.711 24.2035L161.883 75.2093H151.693L136.865 24.2035L138.24 55.1331V75.2093H123.26V1.0191H142.826Z" fill="#264F8D"/>
<path d="M217.424 49.1204V75.2093H202.443V1.0191H227.717C235.055 1.0191 240.897 3.29508 245.246 7.84704C249.628 12.399 251.819 18.3098 251.819 25.5793C251.819 32.8489 249.662 38.5898 245.347 42.802C241.033 47.0143 235.055 49.1204 227.411 49.1204H217.424ZM217.424 36.6365H227.717C230.571 36.6365 232.779 35.7023 234.341 33.834C235.904 31.9657 236.685 29.2481 236.685 25.6812C236.685 21.9785 235.887 19.0401 234.29 16.866C232.694 14.658 230.554 13.537 227.87 13.503H217.424V36.6365Z" fill="#264F8D"/>
<path d="M310.111 1.0191V52.3816C310.043 60.0927 307.92 66.0035 303.742 70.1138C299.563 74.1902 293.568 76.2284 285.755 76.2284C277.806 76.2284 271.725 74.1562 267.513 70.0119C263.335 65.8676 261.245 59.8719 261.245 52.0249V1.0191H276.328V52.0758C276.328 56.2881 277.007 59.2944 278.366 61.0948C279.725 62.8952 282.188 63.7954 285.755 63.7954C289.321 63.7954 291.767 62.9122 293.092 61.1458C294.417 59.3454 295.096 56.407 295.13 52.3306V1.0191H310.111Z" fill="#264F8D"/>
<path d="M352.811 55.7446C352.811 52.7213 352.03 50.4453 350.467 48.9166C348.939 47.354 346.136 45.7404 342.06 44.0759C334.62 41.2564 329.27 37.9613 326.009 34.1907C322.748 30.3861 321.117 25.902 321.117 20.7386C321.117 14.4882 323.325 9.4776 327.741 5.70694C332.191 1.90231 337.83 0 344.658 0C349.21 0 353.27 0.968141 356.837 2.90442C360.403 4.80674 363.138 7.50734 365.04 11.0062C366.977 14.5051 367.945 18.4796 367.945 22.9297H353.015C353.015 19.4647 352.268 16.8321 350.773 15.0317C349.312 13.1973 347.189 12.2801 344.404 12.2801C341.788 12.2801 339.75 13.0614 338.289 14.624C336.828 16.1527 336.098 18.2248 336.098 20.8405C336.098 22.8787 336.913 24.7301 338.544 26.3946C340.174 28.0251 343.062 29.7236 347.206 31.4901C354.442 34.1058 359.69 37.3159 362.951 41.1205C366.246 44.9252 367.894 49.7659 367.894 55.6427C367.894 62.0969 365.839 67.1415 361.728 70.7762C357.618 74.411 352.03 76.2284 344.964 76.2284C340.174 76.2284 335.809 75.2433 331.869 73.273C327.928 71.3028 324.837 68.4833 322.595 64.8145C320.387 61.1458 319.283 56.8146 319.283 51.821H334.315C334.315 56.1013 335.147 59.2095 336.811 61.1458C338.476 63.0821 341.193 64.0502 344.964 64.0502C350.195 64.0502 352.811 61.2817 352.811 55.7446Z" fill="#264F8D"/>
<path d="M122.564 120.925C122.564 122.388 122.311 123.673 121.805 124.78C121.299 125.881 120.574 126.729 119.631 127.323C118.694 127.911 117.614 128.205 116.391 128.205C115.181 128.205 114.101 127.911 113.15 127.323C112.207 126.729 111.476 125.884 110.956 124.791C110.443 123.697 110.184 122.436 110.177 121.007V120.166C110.177 118.71 110.433 117.425 110.946 116.311C111.465 115.196 112.193 114.345 113.13 113.757C114.073 113.163 115.153 112.865 116.37 112.865C117.587 112.865 118.664 113.159 119.6 113.747C120.544 114.328 121.272 115.169 121.784 116.27C122.297 117.363 122.557 118.638 122.564 120.094V120.925ZM119.969 120.146C119.969 118.491 119.655 117.223 119.026 116.341C118.404 115.459 117.519 115.019 116.37 115.019C115.249 115.019 114.371 115.459 113.735 116.341C113.106 117.216 112.785 118.457 112.771 120.063V120.925C112.771 122.565 113.089 123.833 113.725 124.729C114.367 125.625 115.256 126.072 116.391 126.072C117.539 126.072 118.421 125.635 119.036 124.76C119.658 123.885 119.969 122.606 119.969 120.925V120.146ZM131.942 122.453V128H129.348V113.07H135.059C136.727 113.07 138.05 113.504 139.027 114.373C140.012 115.241 140.504 116.389 140.504 117.818C140.504 119.281 140.022 120.419 139.058 121.232C138.101 122.046 136.758 122.453 135.028 122.453H131.942ZM131.942 120.371H135.059C135.982 120.371 136.686 120.156 137.171 119.725C137.657 119.288 137.899 118.659 137.899 117.838C137.899 117.032 137.653 116.389 137.161 115.911C136.669 115.425 135.992 115.176 135.131 115.162H131.942V120.371ZM158.895 120.925C158.895 122.388 158.642 123.673 158.136 124.78C157.631 125.881 156.906 126.729 155.963 127.323C155.026 127.911 153.946 128.205 152.722 128.205C151.512 128.205 150.432 127.911 149.482 127.323C148.539 126.729 147.807 125.884 147.288 124.791C146.775 123.697 146.515 122.436 146.508 121.007V120.166C146.508 118.71 146.765 117.425 147.278 116.311C147.797 115.196 148.525 114.345 149.462 113.757C150.405 113.163 151.485 112.865 152.702 112.865C153.919 112.865 154.995 113.159 155.932 113.747C156.875 114.328 157.603 115.169 158.116 116.27C158.629 117.363 158.888 118.638 158.895 120.094V120.925ZM156.301 120.146C156.301 118.491 155.987 117.223 155.358 116.341C154.736 115.459 153.85 115.019 152.702 115.019C151.581 115.019 150.702 115.459 150.067 116.341C149.438 117.216 149.116 118.457 149.103 120.063V120.925C149.103 122.565 149.421 123.833 150.056 124.729C150.699 125.625 151.588 126.072 152.722 126.072C153.871 126.072 154.753 125.635 155.368 124.76C155.99 123.885 156.301 122.606 156.301 120.925V120.146ZM171.165 122.248H168.273V128H165.679V113.07H170.929C172.652 113.07 173.981 113.457 174.918 114.229C175.854 115.001 176.323 116.119 176.323 117.582C176.323 118.58 176.08 119.417 175.595 120.094C175.116 120.764 174.446 121.28 173.585 121.643L176.938 127.867V128H174.159L171.165 122.248ZM168.273 120.166H170.939C171.814 120.166 172.498 119.947 172.99 119.51C173.482 119.065 173.729 118.46 173.729 117.695C173.729 116.895 173.5 116.276 173.041 115.839C172.59 115.401 171.914 115.176 171.011 115.162H168.273V120.166ZM193.258 115.162H188.603V128H186.029V115.162H181.415V113.07H193.258V115.162ZM211.055 120.925C211.055 122.388 210.802 123.673 210.296 124.78C209.79 125.881 209.066 126.729 208.122 127.323C207.186 127.911 206.106 128.205 204.882 128.205C203.672 128.205 202.592 127.911 201.642 127.323C200.698 126.729 199.967 125.884 199.447 124.791C198.935 123.697 198.675 122.436 198.668 121.007V120.166C198.668 118.71 198.924 117.425 199.437 116.311C199.957 115.196 200.685 114.345 201.621 113.757C202.565 113.163 203.645 112.865 204.861 112.865C206.078 112.865 207.155 113.159 208.091 113.747C209.035 114.328 209.763 115.169 210.275 116.27C210.788 117.363 211.048 118.638 211.055 120.094V120.925ZM208.461 120.146C208.461 118.491 208.146 117.223 207.517 116.341C206.895 115.459 206.01 115.019 204.861 115.019C203.74 115.019 202.862 115.459 202.226 116.341C201.597 117.216 201.276 118.457 201.262 120.063V120.925C201.262 122.565 201.58 123.833 202.216 124.729C202.858 125.625 203.747 126.072 204.882 126.072C206.03 126.072 206.912 125.635 207.527 124.76C208.15 123.885 208.461 122.606 208.461 120.925V120.146ZM238.66 123.14C238.51 124.732 237.922 125.977 236.897 126.872C235.871 127.761 234.508 128.205 232.805 128.205C231.616 128.205 230.567 127.925 229.657 127.364C228.755 126.797 228.058 125.994 227.566 124.955C227.073 123.916 226.817 122.709 226.797 121.335V119.94C226.797 118.532 227.046 117.292 227.545 116.218C228.044 115.145 228.758 114.318 229.688 113.737C230.625 113.156 231.705 112.865 232.928 112.865C234.576 112.865 235.902 113.313 236.907 114.208C237.912 115.104 238.496 116.369 238.66 118.002H236.076C235.953 116.929 235.639 116.157 235.133 115.685C234.634 115.207 233.899 114.967 232.928 114.967C231.8 114.967 230.932 115.381 230.324 116.208C229.722 117.028 229.415 118.235 229.401 119.828V121.15C229.401 122.764 229.688 123.994 230.262 124.842C230.843 125.689 231.691 126.113 232.805 126.113C233.824 126.113 234.59 125.884 235.102 125.426C235.615 124.968 235.94 124.206 236.076 123.14H238.66ZM257.103 120.925C257.103 122.388 256.85 123.673 256.344 124.78C255.838 125.881 255.114 126.729 254.17 127.323C253.234 127.911 252.154 128.205 250.93 128.205C249.72 128.205 248.64 127.911 247.69 127.323C246.747 126.729 246.015 125.884 245.496 124.791C244.983 123.697 244.723 122.436 244.716 121.007V120.166C244.716 118.71 244.973 117.425 245.485 116.311C246.005 115.196 246.733 114.345 247.669 113.757C248.613 113.163 249.693 112.865 250.91 112.865C252.126 112.865 253.203 113.159 254.14 113.747C255.083 114.328 255.811 115.169 256.324 116.27C256.836 117.363 257.096 118.638 257.103 120.094V120.925ZM254.509 120.146C254.509 118.491 254.194 117.223 253.565 116.341C252.943 115.459 252.058 115.019 250.91 115.019C249.789 115.019 248.91 115.459 248.274 116.341C247.646 117.216 247.324 118.457 247.311 120.063V120.925C247.311 122.565 247.628 123.833 248.264 124.729C248.907 125.625 249.795 126.072 250.93 126.072C252.079 126.072 252.96 125.635 253.576 124.76C254.198 123.885 254.509 122.606 254.509 120.925V120.146ZM266.481 125.929H273.259V128H263.887V113.07H266.481V125.929ZM282.043 125.929H288.82V128H279.448V113.07H282.043V125.929ZM303.736 121.335H297.604V125.929H304.771V128H295.01V113.07H304.7V115.162H297.604V119.284H303.736V121.335ZM322.476 123.14C322.325 124.732 321.737 125.977 320.712 126.872C319.687 127.761 318.323 128.205 316.621 128.205C315.431 128.205 314.382 127.925 313.473 127.364C312.57 126.797 311.873 125.994 311.381 124.955C310.889 123.916 310.633 122.709 310.612 121.335V119.94C310.612 118.532 310.862 117.292 311.361 116.218C311.86 115.145 312.574 114.318 313.504 113.737C314.44 113.156 315.52 112.865 316.744 112.865C318.391 112.865 319.717 113.313 320.722 114.208C321.727 115.104 322.312 116.369 322.476 118.002H319.892C319.769 116.929 319.454 116.157 318.948 115.685C318.449 115.207 317.715 114.967 316.744 114.967C315.616 114.967 314.748 115.381 314.139 116.208C313.538 117.028 313.23 118.235 313.216 119.828V121.15C313.216 122.764 313.504 123.994 314.078 124.842C314.659 125.689 315.507 126.113 316.621 126.113C317.639 126.113 318.405 125.884 318.918 125.426C319.43 124.968 319.755 124.206 319.892 123.14H322.476ZM339.483 115.162H334.828V128H332.254V115.162H327.64V113.07H339.483V115.162ZM348.389 128H345.805V113.07H348.389V128ZM367.693 120.925C367.693 122.388 367.441 123.673 366.935 124.78C366.429 125.881 365.704 126.729 364.761 127.323C363.824 127.911 362.744 128.205 361.521 128.205C360.311 128.205 359.231 127.911 358.28 127.323C357.337 126.729 356.606 125.884 356.086 124.791C355.573 123.697 355.314 122.436 355.307 121.007V120.166C355.307 118.71 355.563 117.425 356.076 116.311C356.595 115.196 357.323 114.345 358.26 113.757C359.203 113.163 360.283 112.865 361.5 112.865C362.717 112.865 363.794 113.159 364.73 113.747C365.673 114.328 366.401 115.169 366.914 116.27C367.427 117.363 367.687 118.638 367.693 120.094V120.925ZM365.099 120.146C365.099 118.491 364.785 117.223 364.156 116.341C363.534 115.459 362.649 115.019 361.5 115.019C360.379 115.019 359.501 115.459 358.865 116.341C358.236 117.216 357.915 118.457 357.901 120.063V120.925C357.901 122.565 358.219 123.833 358.855 124.729C359.497 125.625 360.386 126.072 361.521 126.072C362.669 126.072 363.551 125.635 364.166 124.76C364.788 123.885 365.099 122.606 365.099 120.925V120.146ZM386.321 128H383.726L377.072 117.408V128H374.477V113.07H377.072L383.747 123.704V113.07H386.321V128Z" fill="#6B8AA6"/>
</svg>
