<svg width="231" height="36" viewBox="0 0 231 36" fill="none" xmlns="http://www.w3.org/2000/svg">
<path d="M185.448 7.82853V10.625H184.14V3.09883H187.019C187.86 3.09883 188.527 3.31766 189.02 3.75531C189.516 4.19295 189.764 4.77189 189.764 5.49211C189.764 6.22957 189.521 6.80333 189.035 7.21341C188.553 7.62349 187.876 7.82853 187.004 7.82853H185.448ZM185.448 6.77921H187.019C187.484 6.77921 187.839 6.67066 188.084 6.45356C188.329 6.23301 188.451 5.91598 188.451 5.50245C188.451 5.09582 188.327 4.77189 188.079 4.53067C187.831 4.286 187.49 4.16022 187.055 4.15332H185.448V6.77921Z" fill="#2C2E31"/>
<path d="M193.35 10.625H192.048V3.09883H193.35V10.625Z" fill="#2C2E31"/>
<path d="M197.324 9.58085H200.741V10.625H196.016V3.09883H197.324V9.58085Z" fill="#2C2E31"/>
<path d="M207.119 8.87268H204.203L203.593 10.625H202.234L205.077 3.09883H206.25L209.098 10.625H207.734L207.119 8.87268ZM204.57 7.81819H206.752L205.661 4.69608L204.57 7.81819Z" fill="#2C2E31"/>
<path d="M215.833 4.15332H213.486V10.625H212.188V4.15332H209.862V3.09883H215.833V4.15332Z" fill="#2C2E31"/>
<path d="M222.283 7.2651H219.191V9.58085H222.805V10.625H217.884V3.09883H222.768V4.15332H219.191V6.23129H222.283V7.2651Z" fill="#2C2E31"/>
<path d="M228.862 8.6866C228.862 8.35578 228.745 8.10077 228.51 7.92157C228.279 7.74238 227.861 7.56146 227.254 7.37882C226.648 7.19618 226.165 6.99287 225.807 6.76887C225.121 6.33812 224.778 5.77641 224.778 5.08376C224.778 4.47725 225.025 3.97758 225.517 3.58473C226.014 3.19188 226.656 2.99545 227.445 2.99545C227.969 2.99545 228.436 3.09194 228.846 3.28492C229.256 3.4779 229.579 3.75358 229.813 4.11197C230.047 4.46691 230.164 4.86149 230.164 5.29569H228.862C228.862 4.90284 228.738 4.59614 228.49 4.37559C228.245 4.1516 227.893 4.0396 227.435 4.0396C227.008 4.0396 226.675 4.13092 226.437 4.31357C226.203 4.49621 226.086 4.75121 226.086 5.07859C226.086 5.35427 226.213 5.58516 226.468 5.77124C226.723 5.95388 227.144 6.13308 227.73 6.30883C228.316 6.48113 228.786 6.67927 229.141 6.90327C229.496 7.12381 229.756 7.37882 229.921 7.66829C230.087 7.95431 230.17 8.2903 230.17 8.67626C230.17 9.30344 229.928 9.80311 229.446 10.1753C228.967 10.544 228.316 10.7284 227.492 10.7284C226.947 10.7284 226.446 10.6284 225.988 10.4286C225.533 10.2253 225.178 9.94613 224.923 9.59118C224.671 9.23624 224.546 8.82272 224.546 8.35061H225.853C225.853 8.77792 225.995 9.10874 226.277 9.34307C226.56 9.5774 226.965 9.69456 227.492 9.69456C227.947 9.69456 228.288 9.60324 228.515 9.4206C228.746 9.23452 228.862 8.98985 228.862 8.6866Z" fill="#2C2E31"/>
<path d="M188.477 19.4357H185.448V22.625H184.14V15.0988H188.921V16.1533H185.448V18.3915H188.477V19.4357Z" fill="#2C2E31"/>
<path d="M192.399 22.625H191.097V15.0988H192.399V22.625Z" fill="#2C2E31"/>
<path d="M200.348 16.1533H198.001V22.625H196.704V16.1533H194.378V15.0988H200.348V16.1533Z" fill="#2C2E31"/>
<path d="M208.369 22.625H207.062L203.707 17.2853V22.625H202.399V15.0988H203.707L207.072 20.4592V15.0988H208.369V22.625Z" fill="#2C2E31"/>
<path d="M215.373 19.2651H212.281V21.5808H215.895V22.625H210.974V15.0988H215.858V16.1533H212.281V18.2313H215.373V19.2651Z" fill="#2C2E31"/>
<path d="M221.952 20.6866C221.952 20.3558 221.835 20.1008 221.6 19.9216C221.369 19.7424 220.951 19.5615 220.344 19.3788C219.738 19.1962 219.255 18.9929 218.897 18.7689C218.211 18.3381 217.868 17.7764 217.868 17.0838C217.868 16.4773 218.115 15.9776 218.607 15.5847C219.104 15.1919 219.746 14.9955 220.535 14.9955C221.059 14.9955 221.526 15.0919 221.936 15.2849C222.346 15.4779 222.669 15.7536 222.903 16.112C223.137 16.4669 223.254 16.8615 223.254 17.2957H221.952C221.952 16.9028 221.828 16.5961 221.58 16.3756C221.335 16.1516 220.983 16.0396 220.525 16.0396C220.098 16.0396 219.765 16.1309 219.527 16.3136C219.293 16.4962 219.176 16.7512 219.176 17.0786C219.176 17.3543 219.303 17.5852 219.558 17.7712C219.813 17.9539 220.234 18.1331 220.82 18.3088C221.406 18.4811 221.876 18.6793 222.231 18.9033C222.586 19.1238 222.846 19.3788 223.011 19.6683C223.177 19.9543 223.26 20.2903 223.26 20.6763C223.26 21.3034 223.018 21.8031 222.536 22.1753C222.057 22.544 221.406 22.7284 220.582 22.7284C220.037 22.7284 219.536 22.6284 219.078 22.4286C218.623 22.2253 218.268 21.9461 218.013 21.5912C217.761 21.2362 217.636 20.8227 217.636 20.3506H218.943C218.943 20.7779 219.085 21.1087 219.367 21.3431C219.65 21.5774 220.055 21.6946 220.582 21.6946C221.037 21.6946 221.378 21.6032 221.605 21.4206C221.836 21.2345 221.952 20.9898 221.952 20.6866Z" fill="#2C2E31"/>
<path d="M229.399 20.6866C229.399 20.3558 229.282 20.1008 229.048 19.9216C228.817 19.7424 228.398 19.5615 227.792 19.3788C227.185 19.1962 226.703 18.9929 226.344 18.7689C225.659 18.3381 225.316 17.7764 225.316 17.0838C225.316 16.4773 225.562 15.9776 226.055 15.5847C226.551 15.1919 227.194 14.9955 227.983 14.9955C228.507 14.9955 228.974 15.0919 229.384 15.2849C229.794 15.4779 230.116 15.7536 230.35 16.112C230.585 16.4669 230.702 16.8615 230.702 17.2957H229.399C229.399 16.9028 229.275 16.5961 229.027 16.3756C228.782 16.1516 228.431 16.0396 227.973 16.0396C227.545 16.0396 227.213 16.1309 226.975 16.3136C226.741 16.4962 226.624 16.7512 226.624 17.0786C226.624 17.3543 226.751 17.5852 227.006 17.7712C227.261 17.9539 227.681 18.1331 228.267 18.3088C228.853 18.4811 229.324 18.6793 229.678 18.9033C230.033 19.1238 230.294 19.3788 230.459 19.6683C230.624 19.9543 230.707 20.2903 230.707 20.6763C230.707 21.3034 230.466 21.8031 229.983 22.1753C229.504 22.544 228.853 22.7284 228.03 22.7284C227.485 22.7284 226.984 22.6284 226.525 22.4286C226.07 22.2253 225.716 21.9461 225.46 21.5912C225.209 21.2362 225.083 20.8227 225.083 20.3506H226.391C226.391 20.7779 226.532 21.1087 226.815 21.3431C227.097 21.5774 227.502 21.6946 228.03 21.6946C228.484 21.6946 228.826 21.6032 229.053 21.4206C229.284 21.2345 229.399 20.9898 229.399 20.6866Z" fill="#2C2E31"/>
<path d="M183.82 32.5936C183.82 32.2455 183.914 31.9267 184.104 31.6373C184.293 31.3444 184.667 30.998 185.226 30.5983C184.933 30.2296 184.728 29.916 184.61 29.6575C184.497 29.3991 184.44 29.1492 184.44 28.908C184.44 28.3187 184.619 27.8535 184.977 27.5124C185.336 27.1678 185.818 26.9955 186.425 26.9955C186.973 26.9955 187.421 27.1574 187.769 27.4813C188.12 27.8018 188.296 28.1998 188.296 28.6754C188.296 28.989 188.217 29.2785 188.058 29.5438C187.9 29.8057 187.639 30.0676 187.278 30.3295L186.766 30.7017L188.218 32.4178C188.429 32.0043 188.534 31.5442 188.534 31.0377H189.624C189.624 31.9646 189.407 32.7245 188.973 33.3172L190.079 34.625H188.622L188.198 34.1236C187.66 34.5268 187.019 34.7284 186.275 34.7284C185.53 34.7284 184.934 34.532 184.486 34.1391C184.042 33.7428 183.82 33.2276 183.82 32.5936ZM186.311 33.7256C186.735 33.7256 187.131 33.5843 187.5 33.3017L185.856 31.3633L185.696 31.477C185.282 31.7906 185.076 32.149 185.076 32.5522C185.076 32.9003 185.188 33.1828 185.412 33.3999C185.636 33.617 185.935 33.7256 186.311 33.7256ZM185.618 28.877C185.618 29.1665 185.796 29.53 186.151 29.9677L186.725 29.5748L186.885 29.4456C187.098 29.2561 187.205 29.0131 187.205 28.7168C187.205 28.5203 187.131 28.3532 186.983 28.2154C186.835 28.0741 186.647 28.0034 186.42 28.0034C186.175 28.0034 185.98 28.0861 185.835 28.2515C185.691 28.4169 185.618 28.6254 185.618 28.877Z" fill="#2C2E31"/>
<path d="M196.973 31.8285V34.625H195.665V27.0988H198.544C199.385 27.0988 200.052 27.3177 200.545 27.7553C201.041 28.193 201.289 28.7719 201.289 29.4921C201.289 30.2296 201.046 30.8033 200.56 31.2134C200.078 31.6235 199.4 31.8285 198.529 31.8285H196.973ZM196.973 30.7792H198.544C199.009 30.7792 199.364 30.6707 199.609 30.4536C199.854 30.233 199.976 29.916 199.976 29.5025C199.976 29.0958 199.852 28.7719 199.604 28.5307C199.356 28.286 199.015 28.1602 198.58 28.1533H196.973V30.7792Z" fill="#2C2E31"/>
<path d="M206.788 32.8727H203.872L203.262 34.625H201.903L204.746 27.0988H205.919L208.768 34.625H207.403L206.788 32.8727ZM204.239 31.8182H206.421L205.33 28.6961L204.239 31.8182Z" fill="#2C2E31"/>
<path d="M210.684 34.625V27.0988H212.907C213.572 27.0988 214.161 27.247 214.675 27.5434C215.192 27.8397 215.591 28.2602 215.874 28.8046C216.157 29.3491 216.298 29.9728 216.298 30.6758V31.0532C216.298 31.7665 216.155 32.3937 215.869 32.9347C215.586 33.4757 215.181 33.8927 214.654 34.1856C214.13 34.4785 213.529 34.625 212.85 34.625H210.684ZM211.992 28.1533V33.5808H212.845C213.531 33.5808 214.056 33.3672 214.421 32.9399C214.79 32.5091 214.978 31.8923 214.985 31.0894V30.6707C214.985 29.8539 214.807 29.2302 214.452 28.7995C214.098 28.3687 213.582 28.1533 212.907 28.1533H211.992Z" fill="#2C2E31"/>
<path d="M223.058 31.2651H219.967V33.5808H223.58V34.625H218.659V27.0988H223.544V28.1533H219.967V30.2313H223.058V31.2651Z" fill="#2C2E31"/>
<path d="M227.011 33.5808H230.428V34.625H225.703V27.0988H227.011V33.5808Z" fill="#2C2E31"/>
<path d="M24.1455 23.5978C23.9709 27.5506 22.8596 30.543 20.8118 32.575C18.764 34.607 15.8747 35.6229 12.1442 35.6229C8.22312 35.6229 5.21485 34.3371 3.11939 31.7654C1.0398 29.1778 0 25.4948 0 20.7165V14.8826C0 10.1202 1.07948 6.45309 3.23845 3.88138C5.39741 1.29379 8.39774 0 12.2394 0C16.0176 0 18.883 1.05567 20.8356 3.16701C22.8041 5.27835 23.9232 8.31043 24.1931 12.2632H17.1685C17.105 9.81853 16.724 8.13581 16.0256 7.21507C15.3429 6.27846 14.0809 5.81016 12.2394 5.81016C10.3662 5.81016 9.04067 6.46896 8.26281 7.78656C7.48494 9.08829 7.0722 11.2393 7.02458 14.2396V20.788C7.02458 24.2328 7.40557 26.5981 8.16756 27.884C8.94542 29.1698 10.271 29.8128 12.1442 29.8128C13.9857 29.8128 15.2556 29.3683 15.9541 28.4793C16.6526 27.5744 17.0495 25.9473 17.1447 23.5978H24.1455ZM45.0049 28.0507H35.4563L33.5989 35.1467H26.1933L37.0279 0.476242H43.4333L54.3393 35.1467H46.8623L45.0049 28.0507ZM36.9802 22.2167H43.4571L40.2187 9.85822L36.9802 22.2167ZM66.7454 0.476242L73.2937 25.5504L79.8182 0.476242H88.9621V35.1467H81.9375V25.7647L82.5804 11.3108L75.6511 35.1467H70.8887L63.9594 11.3108L64.6023 25.7647V35.1467H57.6015V0.476242H66.7454ZM101.606 22.9549V35.1467H94.6056V0.476242H106.416C109.845 0.476242 112.576 1.53985 114.608 3.66707C116.656 5.79428 117.68 8.55649 117.68 11.9537C117.68 15.3509 116.671 18.0337 114.655 20.0022C112.639 21.9707 109.845 22.9549 106.274 22.9549H101.606ZM101.606 17.1209H106.416C107.75 17.1209 108.782 16.6844 109.512 15.8112C110.242 14.9381 110.607 13.6682 110.607 12.0013C110.607 10.271 110.234 8.8978 109.488 7.88181C108.742 6.84995 107.742 6.32609 106.488 6.31021H101.606V17.1209ZM144.921 0.476242V24.4789C144.889 28.0824 143.897 30.8446 141.944 32.7655C139.991 34.6704 137.19 35.6229 133.538 35.6229C129.824 35.6229 126.982 34.6546 125.014 32.7179C123.061 30.7811 122.085 27.9792 122.085 24.3122V0.476242H129.133V24.336C129.133 26.3045 129.451 27.7094 130.086 28.5507C130.721 29.3921 131.872 29.8128 133.538 29.8128C135.205 29.8128 136.348 29.4 136.967 28.5745C137.586 27.7332 137.904 26.36 137.92 24.455V0.476242H144.921ZM164.875 26.0505C164.875 24.6376 164.51 23.574 163.78 22.8596C163.065 22.1294 161.756 21.3753 159.851 20.5975C156.374 19.2799 153.874 17.74 152.35 15.9779C150.826 14.2 150.064 12.1045 150.064 9.69153C150.064 6.77058 151.096 4.42905 153.16 2.66696C155.239 0.888986 157.874 0 161.065 0C163.192 0 165.089 0.45243 166.756 1.35729C168.423 2.24628 169.701 3.50832 170.59 5.14342C171.495 6.77852 171.947 8.63586 171.947 10.7155H164.97C164.97 9.09623 164.621 7.86594 163.923 7.02458C163.24 6.16734 162.248 5.73872 160.946 5.73872C159.724 5.73872 158.771 6.10384 158.089 6.83408C157.406 7.54844 157.065 8.5168 157.065 9.73916C157.065 10.6916 157.446 11.5568 158.208 12.3347C158.97 13.0967 160.319 13.8904 162.256 14.7159C165.637 15.9382 168.09 17.4384 169.614 19.2164C171.154 20.9944 171.924 23.2565 171.924 26.0028C171.924 29.019 170.963 31.3764 169.042 33.075C167.121 34.7736 164.51 35.6229 161.208 35.6229C158.97 35.6229 156.93 35.1626 155.088 34.2418C153.247 33.3211 151.802 32.0035 150.755 30.289C149.723 28.5745 149.207 26.5505 149.207 24.2169H156.231C156.231 26.2171 156.62 27.6697 157.398 28.5745C158.176 29.4794 159.446 29.9318 161.208 29.9318C163.653 29.9318 164.875 28.638 164.875 26.0505Z" fill="#2C2E31"/>
</svg>
